<?xml version="1.0" encoding="utf-8" standalone="no"?>
<!DOCTYPE svg PUBLIC "-//W3C//DTD SVG 1.1//EN"
  "http://www.w3.org/Graphics/SVG/1.1/DTD/svg11.dtd">
<svg xmlns:xlink="http://www.w3.org/1999/xlink" width="422.51875pt" height="321.959687pt" viewBox="0 0 422.51875 321.959687" xmlns="http://www.w3.org/2000/svg" version="1.1">
 <metadata>
  <rdf:RDF xmlns:dc="http://purl.org/dc/elements/1.1/" xmlns:cc="http://creativecommons.org/ns#" xmlns:rdf="http://www.w3.org/1999/02/22-rdf-syntax-ns#">
   <cc:Work>
    <dc:type rdf:resource="http://purl.org/dc/dcmitype/StillImage"/>
    <dc:date>2023-05-11T11:55:33.291868</dc:date>
    <dc:format>image/svg+xml</dc:format>
    <dc:creator>
     <cc:Agent>
      <dc:title>Matplotlib v3.5.1, https://matplotlib.org/</dc:title>
     </cc:Agent>
    </dc:creator>
   </cc:Work>
  </rdf:RDF>
 </metadata>
 <defs>
  <style type="text/css">*{stroke-linejoin: round; stroke-linecap: butt}</style>
 </defs>
 <g id="figure_1">
  <g id="patch_1">
   <path d="M 0 321.959687 
L 422.51875 321.959687 
L 422.51875 0 
L 0 0 
z
" style="fill: #ffffff"/>
  </g>
  <g id="axes_1">
   <g id="patch_2">
    <path d="M 60.30875 279 
L 339.30875 279 
L 339.30875 7.2 
L 60.30875 7.2 
z
" style="fill: #ffffff"/>
   </g>
   <g id="matplotlib.axis_1">
    <g id="xtick_1">
     <g id="line2d_1">
      <defs>
       <path id="m4005cab144" d="M 0 0 
L 0 6 
" style="stroke: #262626; stroke-width: 1.25"/>
      </defs>
      <g>
       <use xlink:href="#m4005cab144" x="70.402442" y="279" style="fill: #262626; stroke: #262626; stroke-width: 1.25"/>
      </g>
     </g>
     <g id="text_1">
      <!-- 0.0 -->
      <g style="fill: #262626" transform="translate(61.655723 296.858281)scale(0.11 -0.11)">
       <defs>
        <path id="DejaVuSans-30" d="M 2034 4250 
Q 1547 4250 1301 3770 
Q 1056 3291 1056 2328 
Q 1056 1369 1301 889 
Q 1547 409 2034 409 
Q 2525 409 2770 889 
Q 3016 1369 3016 2328 
Q 3016 3291 2770 3770 
Q 2525 4250 2034 4250 
z
M 2034 4750 
Q 2819 4750 3233 4129 
Q 3647 3509 3647 2328 
Q 3647 1150 3233 529 
Q 2819 -91 2034 -91 
Q 1250 -91 836 529 
Q 422 1150 422 2328 
Q 422 3509 836 4129 
Q 1250 4750 2034 4750 
z
" transform="scale(0.015625)"/>
        <path id="DejaVuSans-2e" d="M 684 794 
L 1344 794 
L 1344 0 
L 684 0 
L 684 794 
z
" transform="scale(0.015625)"/>
       </defs>
       <use xlink:href="#DejaVuSans-30"/>
       <use xlink:href="#DejaVuSans-2e" x="63.623047"/>
       <use xlink:href="#DejaVuSans-30" x="95.410156"/>
      </g>
     </g>
    </g>
    <g id="xtick_2">
     <g id="line2d_2">
      <g>
       <use xlink:href="#m4005cab144" x="122.164965" y="279" style="fill: #262626; stroke: #262626; stroke-width: 1.25"/>
      </g>
     </g>
     <g id="text_2">
      <!-- 0.2 -->
      <g style="fill: #262626" transform="translate(113.418246 296.858281)scale(0.11 -0.11)">
       <defs>
        <path id="DejaVuSans-32" d="M 1228 531 
L 3431 531 
L 3431 0 
L 469 0 
L 469 531 
Q 828 903 1448 1529 
Q 2069 2156 2228 2338 
Q 2531 2678 2651 2914 
Q 2772 3150 2772 3378 
Q 2772 3750 2511 3984 
Q 2250 4219 1831 4219 
Q 1534 4219 1204 4116 
Q 875 4013 500 3803 
L 500 4441 
Q 881 4594 1212 4672 
Q 1544 4750 1819 4750 
Q 2544 4750 2975 4387 
Q 3406 4025 3406 3419 
Q 3406 3131 3298 2873 
Q 3191 2616 2906 2266 
Q 2828 2175 2409 1742 
Q 1991 1309 1228 531 
z
" transform="scale(0.015625)"/>
       </defs>
       <use xlink:href="#DejaVuSans-30"/>
       <use xlink:href="#DejaVuSans-2e" x="63.623047"/>
       <use xlink:href="#DejaVuSans-32" x="95.410156"/>
      </g>
     </g>
    </g>
    <g id="xtick_3">
     <g id="line2d_3">
      <g>
       <use xlink:href="#m4005cab144" x="173.927488" y="279" style="fill: #262626; stroke: #262626; stroke-width: 1.25"/>
      </g>
     </g>
     <g id="text_3">
      <!-- 0.4 -->
      <g style="fill: #262626" transform="translate(165.18077 296.858281)scale(0.11 -0.11)">
       <defs>
        <path id="DejaVuSans-34" d="M 2419 4116 
L 825 1625 
L 2419 1625 
L 2419 4116 
z
M 2253 4666 
L 3047 4666 
L 3047 1625 
L 3713 1625 
L 3713 1100 
L 3047 1100 
L 3047 0 
L 2419 0 
L 2419 1100 
L 313 1100 
L 313 1709 
L 2253 4666 
z
" transform="scale(0.015625)"/>
       </defs>
       <use xlink:href="#DejaVuSans-30"/>
       <use xlink:href="#DejaVuSans-2e" x="63.623047"/>
       <use xlink:href="#DejaVuSans-34" x="95.410156"/>
      </g>
     </g>
    </g>
    <g id="xtick_4">
     <g id="line2d_4">
      <g>
       <use xlink:href="#m4005cab144" x="225.690012" y="279" style="fill: #262626; stroke: #262626; stroke-width: 1.25"/>
      </g>
     </g>
     <g id="text_4">
      <!-- 0.6 -->
      <g style="fill: #262626" transform="translate(216.943293 296.858281)scale(0.11 -0.11)">
       <defs>
        <path id="DejaVuSans-36" d="M 2113 2584 
Q 1688 2584 1439 2293 
Q 1191 2003 1191 1497 
Q 1191 994 1439 701 
Q 1688 409 2113 409 
Q 2538 409 2786 701 
Q 3034 994 3034 1497 
Q 3034 2003 2786 2293 
Q 2538 2584 2113 2584 
z
M 3366 4563 
L 3366 3988 
Q 3128 4100 2886 4159 
Q 2644 4219 2406 4219 
Q 1781 4219 1451 3797 
Q 1122 3375 1075 2522 
Q 1259 2794 1537 2939 
Q 1816 3084 2150 3084 
Q 2853 3084 3261 2657 
Q 3669 2231 3669 1497 
Q 3669 778 3244 343 
Q 2819 -91 2113 -91 
Q 1303 -91 875 529 
Q 447 1150 447 2328 
Q 447 3434 972 4092 
Q 1497 4750 2381 4750 
Q 2619 4750 2861 4703 
Q 3103 4656 3366 4563 
z
" transform="scale(0.015625)"/>
       </defs>
       <use xlink:href="#DejaVuSans-30"/>
       <use xlink:href="#DejaVuSans-2e" x="63.623047"/>
       <use xlink:href="#DejaVuSans-36" x="95.410156"/>
      </g>
     </g>
    </g>
    <g id="xtick_5">
     <g id="line2d_5">
      <g>
       <use xlink:href="#m4005cab144" x="277.452535" y="279" style="fill: #262626; stroke: #262626; stroke-width: 1.25"/>
      </g>
     </g>
     <g id="text_5">
      <!-- 0.8 -->
      <g style="fill: #262626" transform="translate(268.705816 296.858281)scale(0.11 -0.11)">
       <defs>
        <path id="DejaVuSans-38" d="M 2034 2216 
Q 1584 2216 1326 1975 
Q 1069 1734 1069 1313 
Q 1069 891 1326 650 
Q 1584 409 2034 409 
Q 2484 409 2743 651 
Q 3003 894 3003 1313 
Q 3003 1734 2745 1975 
Q 2488 2216 2034 2216 
z
M 1403 2484 
Q 997 2584 770 2862 
Q 544 3141 544 3541 
Q 544 4100 942 4425 
Q 1341 4750 2034 4750 
Q 2731 4750 3128 4425 
Q 3525 4100 3525 3541 
Q 3525 3141 3298 2862 
Q 3072 2584 2669 2484 
Q 3125 2378 3379 2068 
Q 3634 1759 3634 1313 
Q 3634 634 3220 271 
Q 2806 -91 2034 -91 
Q 1263 -91 848 271 
Q 434 634 434 1313 
Q 434 1759 690 2068 
Q 947 2378 1403 2484 
z
M 1172 3481 
Q 1172 3119 1398 2916 
Q 1625 2713 2034 2713 
Q 2441 2713 2670 2916 
Q 2900 3119 2900 3481 
Q 2900 3844 2670 4047 
Q 2441 4250 2034 4250 
Q 1625 4250 1398 4047 
Q 1172 3844 1172 3481 
z
" transform="scale(0.015625)"/>
       </defs>
       <use xlink:href="#DejaVuSans-30"/>
       <use xlink:href="#DejaVuSans-2e" x="63.623047"/>
       <use xlink:href="#DejaVuSans-38" x="95.410156"/>
      </g>
     </g>
    </g>
    <g id="xtick_6">
     <g id="line2d_6">
      <g>
       <use xlink:href="#m4005cab144" x="329.215058" y="279" style="fill: #262626; stroke: #262626; stroke-width: 1.25"/>
      </g>
     </g>
     <g id="text_6">
      <!-- 1.0 -->
      <g style="fill: #262626" transform="translate(320.468339 296.858281)scale(0.11 -0.11)">
       <defs>
        <path id="DejaVuSans-31" d="M 794 531 
L 1825 531 
L 1825 4091 
L 703 3866 
L 703 4441 
L 1819 4666 
L 2450 4666 
L 2450 531 
L 3481 531 
L 3481 0 
L 794 0 
L 794 531 
z
" transform="scale(0.015625)"/>
       </defs>
       <use xlink:href="#DejaVuSans-31"/>
       <use xlink:href="#DejaVuSans-2e" x="63.623047"/>
       <use xlink:href="#DejaVuSans-30" x="95.410156"/>
      </g>
     </g>
    </g>
    <g id="text_7">
     <!-- Fraction preferred codons -->
     <g style="fill: #262626" transform="translate(122.834375 312.264062)scale(0.12 -0.12)">
      <defs>
       <path id="DejaVuSans-46" d="M 628 4666 
L 3309 4666 
L 3309 4134 
L 1259 4134 
L 1259 2759 
L 3109 2759 
L 3109 2228 
L 1259 2228 
L 1259 0 
L 628 0 
L 628 4666 
z
" transform="scale(0.015625)"/>
       <path id="DejaVuSans-72" d="M 2631 2963 
Q 2534 3019 2420 3045 
Q 2306 3072 2169 3072 
Q 1681 3072 1420 2755 
Q 1159 2438 1159 1844 
L 1159 0 
L 581 0 
L 581 3500 
L 1159 3500 
L 1159 2956 
Q 1341 3275 1631 3429 
Q 1922 3584 2338 3584 
Q 2397 3584 2469 3576 
Q 2541 3569 2628 3553 
L 2631 2963 
z
" transform="scale(0.015625)"/>
       <path id="DejaVuSans-61" d="M 2194 1759 
Q 1497 1759 1228 1600 
Q 959 1441 959 1056 
Q 959 750 1161 570 
Q 1363 391 1709 391 
Q 2188 391 2477 730 
Q 2766 1069 2766 1631 
L 2766 1759 
L 2194 1759 
z
M 3341 1997 
L 3341 0 
L 2766 0 
L 2766 531 
Q 2569 213 2275 61 
Q 1981 -91 1556 -91 
Q 1019 -91 701 211 
Q 384 513 384 1019 
Q 384 1609 779 1909 
Q 1175 2209 1959 2209 
L 2766 2209 
L 2766 2266 
Q 2766 2663 2505 2880 
Q 2244 3097 1772 3097 
Q 1472 3097 1187 3025 
Q 903 2953 641 2809 
L 641 3341 
Q 956 3463 1253 3523 
Q 1550 3584 1831 3584 
Q 2591 3584 2966 3190 
Q 3341 2797 3341 1997 
z
" transform="scale(0.015625)"/>
       <path id="DejaVuSans-63" d="M 3122 3366 
L 3122 2828 
Q 2878 2963 2633 3030 
Q 2388 3097 2138 3097 
Q 1578 3097 1268 2742 
Q 959 2388 959 1747 
Q 959 1106 1268 751 
Q 1578 397 2138 397 
Q 2388 397 2633 464 
Q 2878 531 3122 666 
L 3122 134 
Q 2881 22 2623 -34 
Q 2366 -91 2075 -91 
Q 1284 -91 818 406 
Q 353 903 353 1747 
Q 353 2603 823 3093 
Q 1294 3584 2113 3584 
Q 2378 3584 2631 3529 
Q 2884 3475 3122 3366 
z
" transform="scale(0.015625)"/>
       <path id="DejaVuSans-74" d="M 1172 4494 
L 1172 3500 
L 2356 3500 
L 2356 3053 
L 1172 3053 
L 1172 1153 
Q 1172 725 1289 603 
Q 1406 481 1766 481 
L 2356 481 
L 2356 0 
L 1766 0 
Q 1100 0 847 248 
Q 594 497 594 1153 
L 594 3053 
L 172 3053 
L 172 3500 
L 594 3500 
L 594 4494 
L 1172 4494 
z
" transform="scale(0.015625)"/>
       <path id="DejaVuSans-69" d="M 603 3500 
L 1178 3500 
L 1178 0 
L 603 0 
L 603 3500 
z
M 603 4863 
L 1178 4863 
L 1178 4134 
L 603 4134 
L 603 4863 
z
" transform="scale(0.015625)"/>
       <path id="DejaVuSans-6f" d="M 1959 3097 
Q 1497 3097 1228 2736 
Q 959 2375 959 1747 
Q 959 1119 1226 758 
Q 1494 397 1959 397 
Q 2419 397 2687 759 
Q 2956 1122 2956 1747 
Q 2956 2369 2687 2733 
Q 2419 3097 1959 3097 
z
M 1959 3584 
Q 2709 3584 3137 3096 
Q 3566 2609 3566 1747 
Q 3566 888 3137 398 
Q 2709 -91 1959 -91 
Q 1206 -91 779 398 
Q 353 888 353 1747 
Q 353 2609 779 3096 
Q 1206 3584 1959 3584 
z
" transform="scale(0.015625)"/>
       <path id="DejaVuSans-6e" d="M 3513 2113 
L 3513 0 
L 2938 0 
L 2938 2094 
Q 2938 2591 2744 2837 
Q 2550 3084 2163 3084 
Q 1697 3084 1428 2787 
Q 1159 2491 1159 1978 
L 1159 0 
L 581 0 
L 581 3500 
L 1159 3500 
L 1159 2956 
Q 1366 3272 1645 3428 
Q 1925 3584 2291 3584 
Q 2894 3584 3203 3211 
Q 3513 2838 3513 2113 
z
" transform="scale(0.015625)"/>
       <path id="DejaVuSans-20" transform="scale(0.015625)"/>
       <path id="DejaVuSans-70" d="M 1159 525 
L 1159 -1331 
L 581 -1331 
L 581 3500 
L 1159 3500 
L 1159 2969 
Q 1341 3281 1617 3432 
Q 1894 3584 2278 3584 
Q 2916 3584 3314 3078 
Q 3713 2572 3713 1747 
Q 3713 922 3314 415 
Q 2916 -91 2278 -91 
Q 1894 -91 1617 61 
Q 1341 213 1159 525 
z
M 3116 1747 
Q 3116 2381 2855 2742 
Q 2594 3103 2138 3103 
Q 1681 3103 1420 2742 
Q 1159 2381 1159 1747 
Q 1159 1113 1420 752 
Q 1681 391 2138 391 
Q 2594 391 2855 752 
Q 3116 1113 3116 1747 
z
" transform="scale(0.015625)"/>
       <path id="DejaVuSans-65" d="M 3597 1894 
L 3597 1613 
L 953 1613 
Q 991 1019 1311 708 
Q 1631 397 2203 397 
Q 2534 397 2845 478 
Q 3156 559 3463 722 
L 3463 178 
Q 3153 47 2828 -22 
Q 2503 -91 2169 -91 
Q 1331 -91 842 396 
Q 353 884 353 1716 
Q 353 2575 817 3079 
Q 1281 3584 2069 3584 
Q 2775 3584 3186 3129 
Q 3597 2675 3597 1894 
z
M 3022 2063 
Q 3016 2534 2758 2815 
Q 2500 3097 2075 3097 
Q 1594 3097 1305 2825 
Q 1016 2553 972 2059 
L 3022 2063 
z
" transform="scale(0.015625)"/>
       <path id="DejaVuSans-66" d="M 2375 4863 
L 2375 4384 
L 1825 4384 
Q 1516 4384 1395 4259 
Q 1275 4134 1275 3809 
L 1275 3500 
L 2222 3500 
L 2222 3053 
L 1275 3053 
L 1275 0 
L 697 0 
L 697 3053 
L 147 3053 
L 147 3500 
L 697 3500 
L 697 3744 
Q 697 4328 969 4595 
Q 1241 4863 1831 4863 
L 2375 4863 
z
" transform="scale(0.015625)"/>
       <path id="DejaVuSans-64" d="M 2906 2969 
L 2906 4863 
L 3481 4863 
L 3481 0 
L 2906 0 
L 2906 525 
Q 2725 213 2448 61 
Q 2172 -91 1784 -91 
Q 1150 -91 751 415 
Q 353 922 353 1747 
Q 353 2572 751 3078 
Q 1150 3584 1784 3584 
Q 2172 3584 2448 3432 
Q 2725 3281 2906 2969 
z
M 947 1747 
Q 947 1113 1208 752 
Q 1469 391 1925 391 
Q 2381 391 2643 752 
Q 2906 1113 2906 1747 
Q 2906 2381 2643 2742 
Q 2381 3103 1925 3103 
Q 1469 3103 1208 2742 
Q 947 2381 947 1747 
z
" transform="scale(0.015625)"/>
       <path id="DejaVuSans-73" d="M 2834 3397 
L 2834 2853 
Q 2591 2978 2328 3040 
Q 2066 3103 1784 3103 
Q 1356 3103 1142 2972 
Q 928 2841 928 2578 
Q 928 2378 1081 2264 
Q 1234 2150 1697 2047 
L 1894 2003 
Q 2506 1872 2764 1633 
Q 3022 1394 3022 966 
Q 3022 478 2636 193 
Q 2250 -91 1575 -91 
Q 1294 -91 989 -36 
Q 684 19 347 128 
L 347 722 
Q 666 556 975 473 
Q 1284 391 1588 391 
Q 1994 391 2212 530 
Q 2431 669 2431 922 
Q 2431 1156 2273 1281 
Q 2116 1406 1581 1522 
L 1381 1569 
Q 847 1681 609 1914 
Q 372 2147 372 2553 
Q 372 3047 722 3315 
Q 1072 3584 1716 3584 
Q 2034 3584 2315 3537 
Q 2597 3491 2834 3397 
z
" transform="scale(0.015625)"/>
      </defs>
      <use xlink:href="#DejaVuSans-46"/>
      <use xlink:href="#DejaVuSans-72" x="50.269531"/>
      <use xlink:href="#DejaVuSans-61" x="91.382812"/>
      <use xlink:href="#DejaVuSans-63" x="152.662109"/>
      <use xlink:href="#DejaVuSans-74" x="207.642578"/>
      <use xlink:href="#DejaVuSans-69" x="246.851562"/>
      <use xlink:href="#DejaVuSans-6f" x="274.634766"/>
      <use xlink:href="#DejaVuSans-6e" x="335.816406"/>
      <use xlink:href="#DejaVuSans-20" x="399.195312"/>
      <use xlink:href="#DejaVuSans-70" x="430.982422"/>
      <use xlink:href="#DejaVuSans-72" x="494.458984"/>
      <use xlink:href="#DejaVuSans-65" x="533.322266"/>
      <use xlink:href="#DejaVuSans-66" x="594.845703"/>
      <use xlink:href="#DejaVuSans-65" x="630.050781"/>
      <use xlink:href="#DejaVuSans-72" x="691.574219"/>
      <use xlink:href="#DejaVuSans-72" x="730.9375"/>
      <use xlink:href="#DejaVuSans-65" x="769.800781"/>
      <use xlink:href="#DejaVuSans-64" x="831.324219"/>
      <use xlink:href="#DejaVuSans-20" x="894.800781"/>
      <use xlink:href="#DejaVuSans-63" x="926.587891"/>
      <use xlink:href="#DejaVuSans-6f" x="981.568359"/>
      <use xlink:href="#DejaVuSans-64" x="1042.75"/>
      <use xlink:href="#DejaVuSans-6f" x="1106.226562"/>
      <use xlink:href="#DejaVuSans-6e" x="1167.408203"/>
      <use xlink:href="#DejaVuSans-73" x="1230.787109"/>
     </g>
    </g>
   </g>
   <g id="matplotlib.axis_2">
    <g id="ytick_1">
     <g id="line2d_7">
      <defs>
       <path id="m3087a762ee" d="M 0 0 
L -6 0 
" style="stroke: #262626; stroke-width: 1.25"/>
      </defs>
      <g>
       <use xlink:href="#m3087a762ee" x="60.30875" y="266.645455" style="fill: #262626; stroke: #262626; stroke-width: 1.25"/>
      </g>
     </g>
     <g id="text_8">
      <!-- 0 -->
      <g style="fill: #262626" transform="translate(43.81 270.824595)scale(0.11 -0.11)">
       <use xlink:href="#DejaVuSans-30"/>
      </g>
     </g>
    </g>
    <g id="ytick_2">
     <g id="line2d_8">
      <g>
       <use xlink:href="#m3087a762ee" x="60.30875" y="210.167532" style="fill: #262626; stroke: #262626; stroke-width: 1.25"/>
      </g>
     </g>
     <g id="text_9">
      <!-- 1000 -->
      <g style="fill: #262626" transform="translate(22.81375 214.346673)scale(0.11 -0.11)">
       <use xlink:href="#DejaVuSans-31"/>
       <use xlink:href="#DejaVuSans-30" x="63.623047"/>
       <use xlink:href="#DejaVuSans-30" x="127.246094"/>
       <use xlink:href="#DejaVuSans-30" x="190.869141"/>
      </g>
     </g>
    </g>
    <g id="ytick_3">
     <g id="line2d_9">
      <g>
       <use xlink:href="#m3087a762ee" x="60.30875" y="153.68961" style="fill: #262626; stroke: #262626; stroke-width: 1.25"/>
      </g>
     </g>
     <g id="text_10">
      <!-- 2000 -->
      <g style="fill: #262626" transform="translate(22.81375 157.868751)scale(0.11 -0.11)">
       <use xlink:href="#DejaVuSans-32"/>
       <use xlink:href="#DejaVuSans-30" x="63.623047"/>
       <use xlink:href="#DejaVuSans-30" x="127.246094"/>
       <use xlink:href="#DejaVuSans-30" x="190.869141"/>
      </g>
     </g>
    </g>
    <g id="ytick_4">
     <g id="line2d_10">
      <g>
       <use xlink:href="#m3087a762ee" x="60.30875" y="97.211688" style="fill: #262626; stroke: #262626; stroke-width: 1.25"/>
      </g>
     </g>
     <g id="text_11">
      <!-- 3000 -->
      <g style="fill: #262626" transform="translate(22.81375 101.390829)scale(0.11 -0.11)">
       <defs>
        <path id="DejaVuSans-33" d="M 2597 2516 
Q 3050 2419 3304 2112 
Q 3559 1806 3559 1356 
Q 3559 666 3084 287 
Q 2609 -91 1734 -91 
Q 1441 -91 1130 -33 
Q 819 25 488 141 
L 488 750 
Q 750 597 1062 519 
Q 1375 441 1716 441 
Q 2309 441 2620 675 
Q 2931 909 2931 1356 
Q 2931 1769 2642 2001 
Q 2353 2234 1838 2234 
L 1294 2234 
L 1294 2753 
L 1863 2753 
Q 2328 2753 2575 2939 
Q 2822 3125 2822 3475 
Q 2822 3834 2567 4026 
Q 2313 4219 1838 4219 
Q 1578 4219 1281 4162 
Q 984 4106 628 3988 
L 628 4550 
Q 988 4650 1302 4700 
Q 1616 4750 1894 4750 
Q 2613 4750 3031 4423 
Q 3450 4097 3450 3541 
Q 3450 3153 3228 2886 
Q 3006 2619 2597 2516 
z
" transform="scale(0.015625)"/>
       </defs>
       <use xlink:href="#DejaVuSans-33"/>
       <use xlink:href="#DejaVuSans-30" x="63.623047"/>
       <use xlink:href="#DejaVuSans-30" x="127.246094"/>
       <use xlink:href="#DejaVuSans-30" x="190.869141"/>
      </g>
     </g>
    </g>
    <g id="ytick_5">
     <g id="line2d_11">
      <g>
       <use xlink:href="#m3087a762ee" x="60.30875" y="40.733766" style="fill: #262626; stroke: #262626; stroke-width: 1.25"/>
      </g>
     </g>
     <g id="text_12">
      <!-- 4000 -->
      <g style="fill: #262626" transform="translate(22.81375 44.912907)scale(0.11 -0.11)">
       <use xlink:href="#DejaVuSans-34"/>
       <use xlink:href="#DejaVuSans-30" x="63.623047"/>
       <use xlink:href="#DejaVuSans-30" x="127.246094"/>
       <use xlink:href="#DejaVuSans-30" x="190.869141"/>
      </g>
     </g>
    </g>
    <g id="text_13">
     <!-- Simulated protein -->
     <g style="fill: #262626" transform="translate(16.318125 196.651875)rotate(-90)scale(0.12 -0.12)">
      <defs>
       <path id="DejaVuSans-53" d="M 3425 4513 
L 3425 3897 
Q 3066 4069 2747 4153 
Q 2428 4238 2131 4238 
Q 1616 4238 1336 4038 
Q 1056 3838 1056 3469 
Q 1056 3159 1242 3001 
Q 1428 2844 1947 2747 
L 2328 2669 
Q 3034 2534 3370 2195 
Q 3706 1856 3706 1288 
Q 3706 609 3251 259 
Q 2797 -91 1919 -91 
Q 1588 -91 1214 -16 
Q 841 59 441 206 
L 441 856 
Q 825 641 1194 531 
Q 1563 422 1919 422 
Q 2459 422 2753 634 
Q 3047 847 3047 1241 
Q 3047 1584 2836 1778 
Q 2625 1972 2144 2069 
L 1759 2144 
Q 1053 2284 737 2584 
Q 422 2884 422 3419 
Q 422 4038 858 4394 
Q 1294 4750 2059 4750 
Q 2388 4750 2728 4690 
Q 3069 4631 3425 4513 
z
" transform="scale(0.015625)"/>
       <path id="DejaVuSans-6d" d="M 3328 2828 
Q 3544 3216 3844 3400 
Q 4144 3584 4550 3584 
Q 5097 3584 5394 3201 
Q 5691 2819 5691 2113 
L 5691 0 
L 5113 0 
L 5113 2094 
Q 5113 2597 4934 2840 
Q 4756 3084 4391 3084 
Q 3944 3084 3684 2787 
Q 3425 2491 3425 1978 
L 3425 0 
L 2847 0 
L 2847 2094 
Q 2847 2600 2669 2842 
Q 2491 3084 2119 3084 
Q 1678 3084 1418 2786 
Q 1159 2488 1159 1978 
L 1159 0 
L 581 0 
L 581 3500 
L 1159 3500 
L 1159 2956 
Q 1356 3278 1631 3431 
Q 1906 3584 2284 3584 
Q 2666 3584 2933 3390 
Q 3200 3197 3328 2828 
z
" transform="scale(0.015625)"/>
       <path id="DejaVuSans-75" d="M 544 1381 
L 544 3500 
L 1119 3500 
L 1119 1403 
Q 1119 906 1312 657 
Q 1506 409 1894 409 
Q 2359 409 2629 706 
Q 2900 1003 2900 1516 
L 2900 3500 
L 3475 3500 
L 3475 0 
L 2900 0 
L 2900 538 
Q 2691 219 2414 64 
Q 2138 -91 1772 -91 
Q 1169 -91 856 284 
Q 544 659 544 1381 
z
M 1991 3584 
L 1991 3584 
z
" transform="scale(0.015625)"/>
       <path id="DejaVuSans-6c" d="M 603 4863 
L 1178 4863 
L 1178 0 
L 603 0 
L 603 4863 
z
" transform="scale(0.015625)"/>
      </defs>
      <use xlink:href="#DejaVuSans-53"/>
      <use xlink:href="#DejaVuSans-69" x="63.476562"/>
      <use xlink:href="#DejaVuSans-6d" x="91.259766"/>
      <use xlink:href="#DejaVuSans-75" x="188.671875"/>
      <use xlink:href="#DejaVuSans-6c" x="252.050781"/>
      <use xlink:href="#DejaVuSans-61" x="279.833984"/>
      <use xlink:href="#DejaVuSans-74" x="341.113281"/>
      <use xlink:href="#DejaVuSans-65" x="380.322266"/>
      <use xlink:href="#DejaVuSans-64" x="441.845703"/>
      <use xlink:href="#DejaVuSans-20" x="505.322266"/>
      <use xlink:href="#DejaVuSans-70" x="537.109375"/>
      <use xlink:href="#DejaVuSans-72" x="600.585938"/>
      <use xlink:href="#DejaVuSans-6f" x="639.449219"/>
      <use xlink:href="#DejaVuSans-74" x="700.630859"/>
      <use xlink:href="#DejaVuSans-65" x="739.839844"/>
      <use xlink:href="#DejaVuSans-69" x="801.363281"/>
      <use xlink:href="#DejaVuSans-6e" x="829.146484"/>
     </g>
    </g>
   </g>
   <g id="line2d_12">
    <path d="M 72.990568 139.979595 
L 75.578694 138.652364 
L 78.166821 137.311013 
L 80.754947 136.096738 
L 83.343073 134.825984 
L 85.931199 133.432862 
L 88.519325 131.818535 
L 91.107451 130.326577 
L 93.695577 128.952281 
L 96.283704 128.556935 
L 98.87183 125.845995 
L 101.459956 123.982223 
L 104.048082 122.547684 
L 106.636208 121.07361 
L 109.224334 119.332208 
L 111.812461 117.600218 
L 114.400587 115.642317 
L 116.988713 113.858556 
L 119.576839 111.924187 
L 122.164965 109.930516 
L 124.753091 107.923668 
L 127.341218 106.149319 
L 129.929344 104.384384 
L 132.51747 101.899356 
L 135.105596 99.682597 
L 137.693722 97.748229 
L 140.281848 95.347917 
L 142.869974 92.862888 
L 148.046227 87.949309 
L 150.634353 85.678897 
L 153.222479 83.289881 
L 155.810605 80.550701 
L 158.398731 77.656208 
L 160.986858 74.959387 
L 163.574984 72.234327 
L 166.16311 69.514915 
L 168.751236 66.205309 
L 171.339362 63.226099 
L 173.927488 60.681768 
L 176.515615 57.752447 
L 184.279993 48.685858 
L 186.868119 45.986213 
L 189.456245 43.557662 
L 192.044372 41.143231 
L 194.632498 40.319595 
L 197.220624 38.960359 
L 199.80875 38.573486 
L 202.396876 39.06202 
L 204.985002 40.08427 
L 207.573128 42.173953 
L 210.161255 44.054668 
L 212.749381 46.423917 
L 215.337507 49.465253 
L 223.101885 57.945413 
L 225.690012 60.868145 
L 228.278138 63.644977 
L 230.866264 66.619481 
L 233.45439 69.556332 
L 236.042516 72.327516 
L 238.630642 75.255896 
L 241.218769 77.726805 
L 243.806895 80.392563 
L 246.395021 83.148686 
L 248.983147 85.605475 
L 251.571273 88.217579 
L 256.747526 93.35707 
L 259.335652 95.140831 
L 261.923778 97.268166 
L 264.511904 100.14854 
L 267.10003 101.828758 
L 269.688156 103.904322 
L 272.276282 106.234036 
L 274.864409 107.970732 
L 277.452535 109.890982 
L 280.040661 112.135979 
L 282.628787 113.618525 
L 285.216913 115.736447 
L 287.805039 117.261351 
L 290.393166 119.266317 
L 292.981292 120.81946 
L 295.569418 122.683231 
L 298.157544 124.34933 
L 300.74567 125.789517 
L 303.333796 127.286182 
L 305.921923 129.291148 
L 308.510049 130.392468 
L 311.098175 131.917371 
L 313.686301 133.150473 
L 316.274427 134.825984 
L 318.862553 136.124977 
L 321.450679 137.621642 
L 324.038806 138.906514 
L 326.626932 140.078431 
" clip-path="url(#p4ce2166e68)" style="fill: none; stroke: #edb081; stroke-width: 2; stroke-linecap: round"/>
   </g>
   <g id="line2d_13">
    <path d="M 72.990568 153.209548 
L 75.578694 151.825839 
L 78.166821 150.795117 
L 80.754947 149.209029 
L 83.343073 148.192426 
L 85.931199 146.987564 
L 88.519325 145.415595 
L 91.107451 144.333101 
L 93.695577 142.770545 
L 96.283704 141.942203 
L 98.87183 140.304343 
L 101.459956 138.807678 
L 104.048082 137.085101 
L 106.636208 135.767283 
L 109.224334 134.223553 
L 111.812461 132.708062 
L 114.400587 130.900769 
L 116.988713 129.333506 
L 119.576839 127.455616 
L 122.164965 125.478888 
L 124.753091 123.982223 
L 127.341218 122.118452 
L 129.929344 120.311158 
L 132.51747 118.503865 
L 135.105596 116.493251 
L 137.693722 114.352738 
L 140.281848 112.545444 
L 142.869974 110.76639 
L 148.046227 105.909288 
L 150.634353 103.763127 
L 153.222479 101.320457 
L 155.810605 98.943678 
L 158.398731 96.420997 
L 160.986858 93.837132 
L 163.574984 90.999117 
L 166.16311 88.062265 
L 168.751236 85.887865 
L 171.339362 82.922774 
L 173.927488 80.211834 
L 176.515615 77.147906 
L 184.279993 67.843169 
L 186.868119 64.073268 
L 189.456245 60.930271 
L 192.044372 57.818338 
L 194.632498 54.570857 
L 197.220624 51.385502 
L 199.80875 48.550311 
L 202.396876 45.53439 
L 204.985002 43.571782 
L 207.573128 41.204416 
L 210.161255 39.739755 
L 212.749381 38.926473 
L 215.337507 38.615844 
L 223.101885 42.296322 
L 225.690012 44.800177 
L 228.278138 46.697835 
L 230.866264 49.525496 
L 233.45439 51.769552 
L 236.042516 54.613216 
L 238.630642 57.677143 
L 241.218769 60.060511 
L 243.806895 62.873112 
L 246.395021 65.245184 
L 248.983147 67.956125 
L 251.571273 70.987106 
L 256.747526 75.947751 
L 259.335652 78.192748 
L 261.923778 80.59306 
L 264.511904 83.007491 
L 267.10003 85.294847 
L 269.688156 87.723397 
L 272.276282 89.911917 
L 274.864409 92.275518 
L 277.452535 94.199532 
L 280.040661 96.477475 
L 282.628787 98.651875 
L 285.216913 100.092062 
L 287.805039 102.421777 
L 290.393166 104.440862 
L 292.981292 106.22933 
L 295.569418 108.154286 
L 298.157544 109.735668 
L 300.74567 111.980665 
L 303.333796 113.138462 
L 305.921923 114.889278 
L 308.510049 116.696571 
L 311.098175 118.419148 
L 313.686301 120.066421 
L 316.274427 121.440717 
L 318.862553 122.782068 
L 321.450679 124.179896 
L 324.038806 125.733039 
L 326.626932 127.286182 
" clip-path="url(#p4ce2166e68)" style="fill: none; stroke: #eca57a; stroke-width: 2; stroke-linecap: round"/>
   </g>
   <g id="line2d_14">
    <path d="M 72.990568 165.973558 
L 75.578694 164.815761 
L 78.166821 163.968592 
L 80.754947 162.810795 
L 83.343073 161.5824 
L 85.931199 160.325766 
L 88.519325 159.167969 
L 91.107451 158.292561 
L 93.695577 208.586151 
L 96.283704 155.468665 
L 98.87183 154.423823 
L 101.459956 153.106005 
L 104.048082 152.145881 
L 106.636208 150.498608 
L 109.224334 149.284332 
L 111.812461 147.702951 
L 114.400587 146.110273 
L 116.988713 144.709621 
L 119.576839 143.424748 
L 122.164965 141.716291 
L 124.753091 140.10667 
L 127.341218 138.459397 
L 129.929344 136.896842 
L 132.51747 135.108374 
L 135.105596 133.385797 
L 137.693722 131.394951 
L 140.281848 129.77121 
L 142.869974 128.020395 
L 148.046227 123.831616 
L 150.634353 121.723106 
L 153.222479 119.554354 
L 155.810605 117.317829 
L 158.398731 115.491709 
L 160.986858 113.081984 
L 163.574984 110.484 
L 166.16311 107.810712 
L 168.751236 105.212727 
L 171.339362 102.986556 
L 173.927488 100.190899 
L 176.515615 97.415009 
L 184.279993 88.45761 
L 186.868119 85.765496 
L 189.456245 82.49919 
L 192.044372 79.048389 
L 194.632498 75.79526 
L 197.220624 72.516717 
L 199.80875 68.563262 
L 202.396876 65.245184 
L 204.985002 62.011823 
L 207.573128 58.091314 
L 210.161255 54.472021 
L 212.749381 51.136999 
L 215.337507 47.86881 
L 223.101885 39.928956 
L 225.690012 38.455823 
L 228.278138 38.147077 
L 230.866264 38.276977 
L 233.45439 39.124145 
L 236.042516 40.530446 
L 238.630642 42.495877 
L 241.218769 44.66463 
L 243.806895 46.965164 
L 246.395021 49.261932 
L 248.983147 51.859917 
L 251.571273 54.367537 
L 256.747526 59.126743 
L 259.335652 61.82827 
L 261.923778 64.194695 
L 264.511904 66.751262 
L 267.10003 69.410431 
L 269.688156 71.556592 
L 272.276282 74.027501 
L 274.864409 76.173662 
L 277.452535 78.319823 
L 280.040661 81.002525 
L 282.628787 83.304 
L 285.216913 85.379564 
L 287.805039 87.403356 
L 290.393166 89.869558 
L 292.981292 91.35681 
L 295.569418 93.502971 
L 298.157544 95.423221 
L 300.74567 97.4376 
L 303.333796 99.047221 
L 305.921923 100.939231 
L 308.510049 102.803003 
L 311.098175 104.553818 
L 313.686301 106.205797 
L 316.274427 107.377714 
L 318.862553 109.51258 
L 321.450679 111.199387 
L 324.038806 112.950203 
L 326.626932 114.475106 
" clip-path="url(#p4ce2166e68)" style="fill: none; stroke: #eb9a73; stroke-width: 2; stroke-linecap: round"/>
   </g>
   <g id="line2d_15">
    <path d="M 72.990568 191.896925 
L 75.578694 191.172125 
L 78.166821 190.343782 
L 80.754947 189.835481 
L 83.343073 188.781226 
L 85.931199 187.181018 
L 88.519325 187.011584 
L 91.107451 186.05146 
L 93.695577 185.053683 
L 96.283704 184.4136 
L 98.87183 182.973413 
L 101.459956 182.116831 
L 104.048082 181.335553 
L 106.636208 180.121278 
L 109.224334 179.302348 
L 111.812461 178.050421 
L 114.400587 177.033818 
L 116.988713 175.828956 
L 119.576839 174.840592 
L 122.164965 173.682795 
L 124.753091 172.18613 
L 127.341218 170.821247 
L 129.929344 169.82347 
L 132.51747 168.769216 
L 135.105596 167.413745 
L 137.693722 165.775886 
L 140.281848 164.363938 
L 142.869974 162.726078 
L 148.046227 159.977486 
L 150.634353 158.433756 
L 153.222479 156.880613 
L 155.810605 155.214514 
L 158.398731 153.520177 
L 160.986858 151.731709 
L 163.574984 149.919709 
L 166.16311 147.702951 
L 168.751236 146.178047 
L 171.339362 144.215439 
L 173.927488 141.843366 
L 176.515615 139.993714 
L 184.279993 133.3152 
L 186.868119 130.547782 
L 189.456245 128.203948 
L 192.044372 125.238857 
L 194.632498 122.909143 
L 197.220624 119.539294 
L 199.80875 117.0072 
L 202.396876 114.098587 
L 204.985002 110.747564 
L 207.573128 107.904842 
L 210.161255 104.299668 
L 212.749381 100.656842 
L 215.337507 96.872821 
L 223.101885 85.385211 
L 225.690012 81.256675 
L 228.278138 76.696083 
L 230.866264 71.373039 
L 233.45439 67.402641 
L 236.042516 62.101247 
L 238.630642 57.973652 
L 241.218769 53.000771 
L 243.806895 48.937184 
L 246.395021 44.611917 
L 248.983147 41.242068 
L 251.571273 38.164021 
L 256.747526 36.17035 
L 259.335652 36.074338 
L 261.923778 37.09094 
L 264.511904 38.262857 
L 267.10003 39.914836 
L 269.688156 41.9904 
L 272.276282 43.821226 
L 274.864409 46.189534 
L 277.452535 48.612436 
L 280.040661 51.012748 
L 282.628787 53.497777 
L 285.216913 55.771013 
L 287.805039 58.147792 
L 290.393166 60.119813 
L 292.981292 62.520125 
L 295.569418 64.642753 
L 298.157544 66.205309 
L 300.74567 68.916249 
L 303.333796 70.878857 
L 305.921923 73.123855 
L 308.510049 75.298255 
L 311.098175 77.345579 
L 313.686301 79.392904 
L 316.274427 81.322566 
L 318.862553 83.191044 
L 321.450679 85.083055 
L 324.038806 87.064488 
L 326.626932 88.612925 
" clip-path="url(#p4ce2166e68)" style="fill: none; stroke: #e88265; stroke-width: 2; stroke-linecap: round"/>
   </g>
   <g id="line2d_16">
    <path d="M 72.990568 217.84853 
L 75.578694 216.944883 
L 78.166821 220.277081 
L 80.754947 216.041236 
L 83.343073 217.340229 
L 85.931199 215.052873 
L 88.519325 214.346899 
L 91.107451 213.810358 
L 93.695577 213.21734 
L 96.283704 212.539605 
L 98.87183 211.940939 
L 101.459956 211.692436 
L 104.048082 210.336966 
L 106.636208 209.96986 
L 109.224334 211.071179 
L 111.812461 208.61439 
L 114.400587 208.077849 
L 116.988713 207.098899 
L 119.576839 206.101122 
L 122.164965 205.479865 
L 124.753091 204.80213 
L 127.341218 203.926722 
L 129.929344 214.57281 
L 132.51747 202.34534 
L 135.105596 201.328738 
L 137.693722 200.26507 
L 140.281848 199.126099 
L 142.869974 198.928426 
L 148.046227 196.10453 
L 150.634353 195.370317 
L 153.222479 194.523148 
L 155.810605 193.1112 
L 158.398731 192.264031 
L 160.986858 191.190951 
L 163.574984 189.609569 
L 166.16311 188.084665 
L 168.751236 187.011584 
L 171.339362 185.317247 
L 173.927488 184.055906 
L 176.515615 182.691023 
L 184.279993 178.229268 
L 186.868119 176.544343 
L 189.456245 174.89707 
L 192.044372 173.084129 
L 194.632498 171.254244 
L 197.220624 169.315169 
L 199.80875 167.526701 
L 202.396876 165.587626 
L 204.985002 206.778857 
L 207.573128 161.03174 
L 210.161255 158.734971 
L 212.749381 156.118161 
L 215.337507 153.768679 
L 223.101885 145.133205 
L 225.690012 141.772769 
L 228.278138 139.090068 
L 230.866264 135.419003 
L 233.45439 131.40907 
L 236.042516 128.218068 
L 238.630642 124.208135 
L 241.218769 120.480592 
L 243.806895 115.750566 
L 246.395021 111.293517 
L 248.983147 106.587023 
L 251.571273 101.296925 
L 256.747526 90.081351 
L 259.335652 83.675813 
L 261.923778 77.858587 
L 264.511904 70.75743 
L 267.10003 63.419065 
L 269.688156 55.926327 
L 272.276282 49.727875 
L 274.864409 43.286568 
L 277.452535 38.000235 
L 280.040661 34.394119 
L 282.628787 32.840977 
L 285.216913 32.149122 
L 287.805039 32.337382 
L 290.393166 33.753095 
L 292.981292 35.763709 
L 295.569418 37.650072 
L 298.157544 39.463013 
L 300.74567 41.467979 
L 303.333796 43.854171 
L 305.921923 46.014452 
L 308.510049 48.697153 
L 311.098175 50.575044 
L 313.686301 52.382338 
L 316.274427 54.570857 
L 318.862553 56.787616 
L 321.450679 58.829292 
L 324.038806 60.934036 
L 326.626932 62.421288 
" clip-path="url(#p4ce2166e68)" style="fill: none; stroke: #e1645c; stroke-width: 2; stroke-linecap: round"/>
   </g>
   <g id="line2d_17">
    <path d="M 72.990568 243.94133 
L 75.578694 243.771896 
L 78.166821 243.207117 
L 80.754947 243.771896 
L 83.343073 243.433029 
L 85.931199 243.94133 
L 88.519325 242.246992 
L 91.107451 241.851647 
L 93.695577 241.597496 
L 96.283704 246.426358 
L 98.87183 240.552655 
L 101.459956 239.705486 
L 104.048082 239.649008 
L 106.636208 242.924727 
L 109.224334 239.027751 
L 111.812461 238.858317 
L 114.400587 255.462826 
L 116.988713 238.368842 
L 119.576839 237.785236 
L 122.164965 237.898192 
L 124.753091 237.672281 
L 127.341218 247.330005 
L 129.929344 243.94133 
L 132.51747 235.921465 
L 135.105596 242.30347 
L 137.693722 236.090899 
L 140.281848 234.340083 
L 142.869974 233.831782 
L 148.046227 236.034421 
L 150.634353 232.363356 
L 153.222479 231.855055 
L 155.810605 231.544426 
L 158.398731 230.876104 
L 160.986858 230.273673 
L 163.574984 231.855055 
L 166.16311 228.711117 
L 168.751236 228.042795 
L 171.339362 227.732166 
L 173.927488 227.054431 
L 176.515615 227.223865 
L 184.279993 223.524561 
L 186.868119 227.845122 
L 189.456245 222.253808 
L 192.044372 221.067771 
L 194.632498 224.287013 
L 197.220624 219.204 
L 199.80875 218.413309 
L 202.396876 217.199034 
L 204.985002 216.097714 
L 207.573128 215.250545 
L 210.161255 213.669164 
L 212.749381 212.596083 
L 215.337507 211.607719 
L 223.101885 207.089486 
L 225.690012 205.558934 
L 228.278138 203.785527 
L 230.866264 209.715709 
L 233.45439 204.632696 
L 236.042516 198.514255 
L 238.630642 196.612831 
L 241.218769 194.607865 
L 243.806895 192.348748 
L 246.395021 189.797829 
L 248.983147 188.141143 
L 251.571273 184.658338 
L 256.747526 178.398701 
L 259.335652 175.283003 
L 261.923778 185.76907 
L 264.511904 167.865569 
L 267.10003 162.839034 
L 269.688156 158.565538 
L 272.276282 154.028478 
L 274.864409 148.225371 
L 277.452535 142.365787 
L 280.040661 135.659034 
L 282.628787 128.909922 
L 285.216913 120.744156 
L 287.805039 112.498379 
L 290.393166 102.195865 
L 292.981292 90.415512 
L 295.569418 79.176405 
L 298.157544 65.617939 
L 300.74567 50.764245 
L 303.333796 38.621492 
L 305.921923 30.525382 
L 308.510049 27.263782 
L 311.098175 27.023751 
L 313.686301 27.811618 
L 316.274427 29.415591 
L 318.862553 31.05345 
L 321.450679 32.977465 
L 324.038806 35.424842 
L 326.626932 37.260374 
" clip-path="url(#p4ce2166e68)" style="fill: none; stroke: #c74366; stroke-width: 2; stroke-linecap: round"/>
   </g>
   <g id="line2d_18">
    <path d="M 72.990568 259.020935 
L 75.578694 260.997662 
L 78.166821 255.491065 
L 80.754947 259.811626 
L 83.343073 255.406348 
L 85.931199 256.479429 
L 88.519325 255.406348 
L 91.107451 255.688738 
L 93.695577 255.293392 
L 96.283704 255.406348 
L 98.87183 258.286722 
L 101.459956 255.236914 
L 104.048082 255.34987 
L 106.636208 256.592384 
L 109.224334 255.914649 
L 111.812461 255.011003 
L 114.400587 254.672135 
L 116.988713 255.34987 
L 119.576839 254.220312 
L 122.164965 254.333268 
L 124.753091 255.180436 
L 127.341218 253.203709 
L 129.929344 253.203709 
L 132.51747 252.808364 
L 135.105596 251.961195 
L 137.693722 251.904717 
L 140.281848 255.34987 
L 142.869974 251.057548 
L 148.046227 250.379813 
L 150.634353 250.210379 
L 153.222479 252.300062 
L 155.810605 249.984468 
L 158.398731 249.758556 
L 160.986858 249.871512 
L 163.574984 249.984468 
L 166.16311 249.36321 
L 168.751236 249.250255 
L 171.339362 249.589122 
L 173.927488 248.29013 
L 176.515615 247.781829 
L 184.279993 246.369881 
L 186.868119 246.143969 
L 189.456245 248.854909 
L 192.044372 245.2968 
L 194.632498 244.788499 
L 197.220624 244.506109 
L 199.80875 251.452894 
L 202.396876 243.489506 
L 204.985002 242.981205 
L 207.573128 242.378774 
L 210.161255 241.738691 
L 212.749381 243.94133 
L 215.337507 240.496177 
L 223.101885 238.067626 
L 225.690012 239.423096 
L 228.278138 236.486244 
L 230.866264 235.24373 
L 233.45439 234.565995 
L 236.042516 236.5992 
L 238.630642 233.831782 
L 241.218769 231.629143 
L 243.806895 230.640779 
L 246.395021 228.692291 
L 248.983147 228.18399 
L 251.571273 226.884997 
L 256.747526 223.722234 
L 259.335652 222.084374 
L 261.923778 220.277081 
L 264.511904 218.272114 
L 267.10003 216.662494 
L 269.688156 213.443252 
L 272.276282 210.901745 
L 274.864409 208.134327 
L 277.452535 205.517517 
L 280.040661 202.317101 
L 282.628787 198.871948 
L 285.216913 194.673756 
L 287.805039 190.02374 
L 290.393166 184.432426 
L 292.981292 178.099368 
L 295.569418 171.790784 
L 298.157544 163.573247 
L 300.74567 154.423823 
L 303.333796 143.052935 
L 305.921923 129.135834 
L 308.510049 113.285305 
L 311.098175 92.453423 
L 313.686301 66.431221 
L 316.274427 38.681735 
L 318.862553 25.789708 
L 321.450679 22.590234 
L 324.038806 23.044881 
L 326.626932 24.705332 
" clip-path="url(#p4ce2166e68)" style="fill: none; stroke: #a0376f; stroke-width: 2; stroke-linecap: round"/>
   </g>
   <g id="line2d_19">
    <path d="M 72.990568 266.645455 
L 75.578694 266.645455 
L 78.166821 265.459418 
L 80.754947 266.645455 
L 83.343073 264.894639 
L 85.931199 264.668727 
L 88.519325 264.668727 
L 91.107451 263.990992 
L 93.695577 264.160426 
L 96.283704 263.595647 
L 98.87183 263.878036 
L 101.459956 262.635522 
L 104.048082 266.645455 
L 106.636208 266.588977 
L 109.224334 262.522566 
L 111.812461 262.353132 
L 114.400587 266.645455 
L 116.988713 262.070743 
L 119.576839 266.250109 
L 122.164965 263.482691 
L 124.753091 262.804956 
L 127.341218 266.645455 
L 129.929344 261.675397 
L 132.51747 261.223574 
L 135.105596 264.04747 
L 137.693722 261.393008 
L 140.281848 261.167096 
L 142.869974 266.532499 
L 148.046227 261.223574 
L 150.634353 261.05414 
L 153.222479 260.997662 
L 155.810605 266.645455 
L 158.398731 262.861434 
L 160.986858 260.997662 
L 163.574984 260.997662 
L 166.16311 260.997662 
L 168.751236 260.969423 
L 171.339362 260.997662 
L 173.927488 260.997662 
L 176.515615 261.05414 
L 184.279993 261.280052 
L 186.868119 260.715273 
L 189.456245 260.828229 
L 192.044372 260.658795 
L 194.632498 260.5176 
L 197.220624 260.150494 
L 199.80875 259.868104 
L 202.396876 259.303325 
L 204.985002 259.133891 
L 207.573128 258.710306 
L 210.161255 258.399678 
L 212.749381 258.211418 
L 215.337507 259.020935 
L 223.101885 260.037538 
L 225.690012 260.602317 
L 228.278138 259.585714 
L 230.866264 255.745216 
L 233.45439 256.027605 
L 236.042516 255.293392 
L 238.630642 255.745216 
L 241.218769 254.559179 
L 243.806895 254.107356 
L 246.395021 253.655532 
L 248.983147 253.090753 
L 251.571273 252.413018 
L 256.747526 251.00107 
L 259.335652 250.153901 
L 261.923778 252.63893 
L 264.511904 248.798431 
L 267.10003 248.00774 
L 269.688156 247.254701 
L 272.276282 245.720384 
L 274.864409 244.732021 
L 277.452535 244.110764 
L 280.040661 243.000031 
L 282.628787 240.722088 
L 285.216913 239.281901 
L 287.805039 237.785236 
L 290.393166 235.017818 
L 292.981292 232.645745 
L 295.569418 230.251082 
L 298.157544 227.144796 
L 300.74567 223.01626 
L 303.333796 217.961486 
L 305.921923 213.810358 
L 308.510049 206.115242 
L 311.098175 196.914047 
L 313.686301 185.133694 
L 316.274427 169.797114 
L 318.862553 145.771406 
L 321.450679 106.770577 
L 324.038806 42.315148 
L 326.626932 19.554545 
" clip-path="url(#p4ce2166e68)" style="fill: none; stroke: #6f2c6d; stroke-width: 2; stroke-linecap: round"/>
   </g>
   <g id="line2d_20">
    <path d="M 72.990568 266.645455 
L 75.578694 266.645455 
L 78.166821 266.645455 
L 80.754947 266.645455 
L 83.343073 266.645455 
L 85.931199 266.645455 
L 88.519325 266.645455 
L 91.107451 266.645455 
L 93.695577 266.645455 
L 96.283704 266.645455 
L 98.87183 266.645455 
L 101.459956 266.645455 
L 104.048082 266.645455 
L 106.636208 266.645455 
L 109.224334 266.645455 
L 111.812461 266.645455 
L 114.400587 266.645455 
L 116.988713 266.645455 
L 119.576839 266.645455 
L 122.164965 266.645455 
L 124.753091 266.645455 
L 127.341218 266.645455 
L 129.929344 266.645455 
L 132.51747 266.645455 
L 135.105596 266.645455 
L 137.693722 266.645455 
L 140.281848 266.645455 
L 142.869974 266.645455 
L 148.046227 266.645455 
L 150.634353 266.645455 
L 153.222479 266.645455 
L 155.810605 266.645455 
L 158.398731 266.645455 
L 160.986858 266.645455 
L 163.574984 266.645455 
L 166.16311 266.588977 
L 168.751236 266.645455 
L 171.339362 266.645455 
L 173.927488 266.588977 
L 176.515615 266.645455 
L 184.279993 266.532499 
L 186.868119 265.967719 
L 189.456245 266.645455 
L 192.044372 266.532499 
L 194.632498 266.193631 
L 197.220624 265.798286 
L 199.80875 266.645455 
L 202.396876 266.645455 
L 204.985002 266.476021 
L 207.573128 266.363065 
L 210.161255 263.906275 
L 212.749381 263.595647 
L 215.337507 264.838161 
L 223.101885 262.353132 
L 225.690012 262.014265 
L 228.278138 262.070743 
L 230.866264 261.618919 
L 233.45439 266.193631 
L 236.042516 261.308291 
L 238.630642 261.280052 
L 241.218769 263.369735 
L 243.806895 261.05414 
L 246.395021 261.562442 
L 248.983147 260.997662 
L 251.571273 260.828229 
L 256.747526 260.771751 
L 259.335652 260.432883 
L 261.923778 259.868104 
L 264.511904 259.388042 
L 267.10003 258.907979 
L 269.688156 258.314961 
L 272.276282 263.708603 
L 274.864409 257.326597 
L 277.452535 256.281756 
L 280.040661 257.608987 
L 282.628787 254.982764 
L 285.216913 254.389745 
L 287.805039 253.599055 
L 290.393166 251.97249 
L 292.981292 250.859875 
L 295.569418 249.702078 
L 298.157544 247.781829 
L 300.74567 246.031013 
L 303.333796 243.40479 
L 305.921923 241.079782 
L 308.510049 237.785236 
L 311.098175 232.849066 
L 313.686301 226.828519 
L 316.274427 218.594038 
L 318.862553 206.863574 
L 321.450679 186.884509 
L 324.038806 146.302298 
L 326.626932 47.319092 
" clip-path="url(#p4ce2166e68)" style="fill: none; stroke: #4b2362; stroke-width: 2; stroke-linecap: round"/>
   </g>
   <g id="line2d_21"/>
   <g id="line2d_22"/>
   <g id="line2d_23"/>
   <g id="line2d_24"/>
   <g id="line2d_25"/>
   <g id="line2d_26"/>
   <g id="line2d_27"/>
   <g id="line2d_28"/>
   <g id="line2d_29"/>
   <g id="patch_3">
    <path d="M 60.30875 279 
L 60.30875 7.2 
" style="fill: none; stroke: #262626; stroke-width: 1.25; stroke-linejoin: miter; stroke-linecap: square"/>
   </g>
   <g id="patch_4">
    <path d="M 339.30875 279 
L 339.30875 7.2 
" style="fill: none; stroke: #262626; stroke-width: 1.25; stroke-linejoin: miter; stroke-linecap: square"/>
   </g>
   <g id="patch_5">
    <path d="M 60.30875 279 
L 339.30875 279 
" style="fill: none; stroke: #262626; stroke-width: 1.25; stroke-linejoin: miter; stroke-linecap: square"/>
   </g>
   <g id="patch_6">
    <path d="M 60.30875 7.2 
L 339.30875 7.2 
" style="fill: none; stroke: #262626; stroke-width: 1.25; stroke-linejoin: miter; stroke-linecap: square"/>
   </g>
   <g id="legend_1">
    <g id="patch_7">
     <path d="M 347.00875 225.963594 
L 413.11875 225.963594 
Q 415.31875 225.963594 415.31875 223.763594 
L 415.31875 62.436406 
Q 415.31875 60.236406 413.11875 60.236406 
L 347.00875 60.236406 
Q 344.80875 60.236406 344.80875 62.436406 
L 344.80875 223.763594 
Q 344.80875 225.963594 347.00875 225.963594 
z
" style="fill: #ffffff; opacity: 0.8; stroke: #cccccc; stroke-linejoin: miter"/>
    </g>
    <g id="text_14">
     <!-- tRNA ratio -->
     <g style="fill: #262626" transform="translate(349.20875 73.754531)scale(0.12 -0.12)">
      <defs>
       <path id="DejaVuSans-52" d="M 2841 2188 
Q 3044 2119 3236 1894 
Q 3428 1669 3622 1275 
L 4263 0 
L 3584 0 
L 2988 1197 
Q 2756 1666 2539 1819 
Q 2322 1972 1947 1972 
L 1259 1972 
L 1259 0 
L 628 0 
L 628 4666 
L 2053 4666 
Q 2853 4666 3247 4331 
Q 3641 3997 3641 3322 
Q 3641 2881 3436 2590 
Q 3231 2300 2841 2188 
z
M 1259 4147 
L 1259 2491 
L 2053 2491 
Q 2509 2491 2742 2702 
Q 2975 2913 2975 3322 
Q 2975 3731 2742 3939 
Q 2509 4147 2053 4147 
L 1259 4147 
z
" transform="scale(0.015625)"/>
       <path id="DejaVuSans-4e" d="M 628 4666 
L 1478 4666 
L 3547 763 
L 3547 4666 
L 4159 4666 
L 4159 0 
L 3309 0 
L 1241 3903 
L 1241 0 
L 628 0 
L 628 4666 
z
" transform="scale(0.015625)"/>
       <path id="DejaVuSans-41" d="M 2188 4044 
L 1331 1722 
L 3047 1722 
L 2188 4044 
z
M 1831 4666 
L 2547 4666 
L 4325 0 
L 3669 0 
L 3244 1197 
L 1141 1197 
L 716 0 
L 50 0 
L 1831 4666 
z
" transform="scale(0.015625)"/>
      </defs>
      <use xlink:href="#DejaVuSans-74"/>
      <use xlink:href="#DejaVuSans-52" x="39.208984"/>
      <use xlink:href="#DejaVuSans-4e" x="108.691406"/>
      <use xlink:href="#DejaVuSans-41" x="183.496094"/>
      <use xlink:href="#DejaVuSans-20" x="251.904297"/>
      <use xlink:href="#DejaVuSans-72" x="283.691406"/>
      <use xlink:href="#DejaVuSans-61" x="324.804688"/>
      <use xlink:href="#DejaVuSans-74" x="386.083984"/>
      <use xlink:href="#DejaVuSans-69" x="425.292969"/>
      <use xlink:href="#DejaVuSans-6f" x="453.076172"/>
     </g>
    </g>
    <g id="line2d_30">
     <path d="M 352.417656 86.258437 
L 363.417656 86.258437 
L 374.417656 86.258437 
" style="fill: none; stroke: #edb081; stroke-width: 1.5; stroke-linecap: round"/>
    </g>
    <g id="text_15">
     <!-- 1.0 -->
     <g style="fill: #262626" transform="translate(383.217656 90.108437)scale(0.11 -0.11)">
      <use xlink:href="#DejaVuSans-31"/>
      <use xlink:href="#DejaVuSans-2e" x="63.623047"/>
      <use xlink:href="#DejaVuSans-30" x="95.410156"/>
     </g>
    </g>
    <g id="line2d_31">
     <path d="M 352.417656 102.404375 
L 363.417656 102.404375 
L 374.417656 102.404375 
" style="fill: none; stroke: #eca57a; stroke-width: 1.5; stroke-linecap: round"/>
    </g>
    <g id="text_16">
     <!-- 1.22 -->
     <g style="fill: #262626" transform="translate(383.217656 106.254375)scale(0.11 -0.11)">
      <use xlink:href="#DejaVuSans-31"/>
      <use xlink:href="#DejaVuSans-2e" x="63.623047"/>
      <use xlink:href="#DejaVuSans-32" x="95.410156"/>
      <use xlink:href="#DejaVuSans-32" x="159.033203"/>
     </g>
    </g>
    <g id="line2d_32">
     <path d="M 352.417656 118.550312 
L 363.417656 118.550312 
L 374.417656 118.550312 
" style="fill: none; stroke: #eb9a73; stroke-width: 1.5; stroke-linecap: round"/>
    </g>
    <g id="text_17">
     <!-- 1.5 -->
     <g style="fill: #262626" transform="translate(383.217656 122.400312)scale(0.11 -0.11)">
      <defs>
       <path id="DejaVuSans-35" d="M 691 4666 
L 3169 4666 
L 3169 4134 
L 1269 4134 
L 1269 2991 
Q 1406 3038 1543 3061 
Q 1681 3084 1819 3084 
Q 2600 3084 3056 2656 
Q 3513 2228 3513 1497 
Q 3513 744 3044 326 
Q 2575 -91 1722 -91 
Q 1428 -91 1123 -41 
Q 819 9 494 109 
L 494 744 
Q 775 591 1075 516 
Q 1375 441 1709 441 
Q 2250 441 2565 725 
Q 2881 1009 2881 1497 
Q 2881 1984 2565 2268 
Q 2250 2553 1709 2553 
Q 1456 2553 1204 2497 
Q 953 2441 691 2322 
L 691 4666 
z
" transform="scale(0.015625)"/>
      </defs>
      <use xlink:href="#DejaVuSans-31"/>
      <use xlink:href="#DejaVuSans-2e" x="63.623047"/>
      <use xlink:href="#DejaVuSans-35" x="95.410156"/>
     </g>
    </g>
    <g id="line2d_33">
     <path d="M 352.417656 134.69625 
L 363.417656 134.69625 
L 374.417656 134.69625 
" style="fill: none; stroke: #e88265; stroke-width: 1.5; stroke-linecap: round"/>
    </g>
    <g id="text_18">
     <!-- 2.33 -->
     <g style="fill: #262626" transform="translate(383.217656 138.54625)scale(0.11 -0.11)">
      <use xlink:href="#DejaVuSans-32"/>
      <use xlink:href="#DejaVuSans-2e" x="63.623047"/>
      <use xlink:href="#DejaVuSans-33" x="95.410156"/>
      <use xlink:href="#DejaVuSans-33" x="159.033203"/>
     </g>
    </g>
    <g id="line2d_34">
     <path d="M 352.417656 150.842187 
L 363.417656 150.842187 
L 374.417656 150.842187 
" style="fill: none; stroke: #e1645c; stroke-width: 1.5; stroke-linecap: round"/>
    </g>
    <g id="text_19">
     <!-- 4.0 -->
     <g style="fill: #262626" transform="translate(383.217656 154.692187)scale(0.11 -0.11)">
      <use xlink:href="#DejaVuSans-34"/>
      <use xlink:href="#DejaVuSans-2e" x="63.623047"/>
      <use xlink:href="#DejaVuSans-30" x="95.410156"/>
     </g>
    </g>
    <g id="line2d_35">
     <path d="M 352.417656 166.988125 
L 363.417656 166.988125 
L 374.417656 166.988125 
" style="fill: none; stroke: #c74366; stroke-width: 1.5; stroke-linecap: round"/>
    </g>
    <g id="text_20">
     <!-- 9.0 -->
     <g style="fill: #262626" transform="translate(383.217656 170.838125)scale(0.11 -0.11)">
      <defs>
       <path id="DejaVuSans-39" d="M 703 97 
L 703 672 
Q 941 559 1184 500 
Q 1428 441 1663 441 
Q 2288 441 2617 861 
Q 2947 1281 2994 2138 
Q 2813 1869 2534 1725 
Q 2256 1581 1919 1581 
Q 1219 1581 811 2004 
Q 403 2428 403 3163 
Q 403 3881 828 4315 
Q 1253 4750 1959 4750 
Q 2769 4750 3195 4129 
Q 3622 3509 3622 2328 
Q 3622 1225 3098 567 
Q 2575 -91 1691 -91 
Q 1453 -91 1209 -44 
Q 966 3 703 97 
z
M 1959 2075 
Q 2384 2075 2632 2365 
Q 2881 2656 2881 3163 
Q 2881 3666 2632 3958 
Q 2384 4250 1959 4250 
Q 1534 4250 1286 3958 
Q 1038 3666 1038 3163 
Q 1038 2656 1286 2365 
Q 1534 2075 1959 2075 
z
" transform="scale(0.015625)"/>
      </defs>
      <use xlink:href="#DejaVuSans-39"/>
      <use xlink:href="#DejaVuSans-2e" x="63.623047"/>
      <use xlink:href="#DejaVuSans-30" x="95.410156"/>
     </g>
    </g>
    <g id="line2d_36">
     <path d="M 352.417656 183.134062 
L 363.417656 183.134062 
L 374.417656 183.134062 
" style="fill: none; stroke: #a0376f; stroke-width: 1.5; stroke-linecap: round"/>
    </g>
    <g id="text_21">
     <!-- 19.0 -->
     <g style="fill: #262626" transform="translate(383.217656 186.984062)scale(0.11 -0.11)">
      <use xlink:href="#DejaVuSans-31"/>
      <use xlink:href="#DejaVuSans-39" x="63.623047"/>
      <use xlink:href="#DejaVuSans-2e" x="127.246094"/>
      <use xlink:href="#DejaVuSans-30" x="159.033203"/>
     </g>
    </g>
    <g id="line2d_37">
     <path d="M 352.417656 199.28 
L 363.417656 199.28 
L 374.417656 199.28 
" style="fill: none; stroke: #6f2c6d; stroke-width: 1.5; stroke-linecap: round"/>
    </g>
    <g id="text_22">
     <!-- 49.0 -->
     <g style="fill: #262626" transform="translate(383.217656 203.13)scale(0.11 -0.11)">
      <use xlink:href="#DejaVuSans-34"/>
      <use xlink:href="#DejaVuSans-39" x="63.623047"/>
      <use xlink:href="#DejaVuSans-2e" x="127.246094"/>
      <use xlink:href="#DejaVuSans-30" x="159.033203"/>
     </g>
    </g>
    <g id="line2d_38">
     <path d="M 352.417656 215.425937 
L 363.417656 215.425937 
L 374.417656 215.425937 
" style="fill: none; stroke: #4b2362; stroke-width: 1.5; stroke-linecap: round"/>
    </g>
    <g id="text_23">
     <!-- 99.0 -->
     <g style="fill: #262626" transform="translate(383.217656 219.275937)scale(0.11 -0.11)">
      <use xlink:href="#DejaVuSans-39"/>
      <use xlink:href="#DejaVuSans-39" x="63.623047"/>
      <use xlink:href="#DejaVuSans-2e" x="127.246094"/>
      <use xlink:href="#DejaVuSans-30" x="159.033203"/>
     </g>
    </g>
   </g>
  </g>
 </g>
 <defs>
  <clipPath id="p4ce2166e68">
   <rect x="60.30875" y="7.2" width="279" height="271.8"/>
  </clipPath>
 </defs>
</svg>
